<?xml version="1.0" encoding="utf-8"?>
<!-- Generator: Adobe Illustrator 23.0.1, SVG Export Plug-In . SVG Version: 6.00 Build 0)  -->
<svg version="1.1" id="Layer_1" xmlns="http://www.w3.org/2000/svg" xmlns:xlink="http://www.w3.org/1999/xlink" x="0px" y="0px"
	 viewBox="0 0 217.06 217.06" style="enable-background:new 0 0 217.06 217.06;" xml:space="preserve">
<style type="text/css">
	.st0{fill:none;stroke:#FFFFFF;stroke-width:3;stroke-miterlimit:10;}
	.st1{fill:#FFFFFF;}
	.st2{fill:#606161;}
</style>
<g>
	<circle class="st0" cx="108.53" cy="108.53" r="107.03"/>
	<g>
		<path class="st1" d="M157.8,49.42l-56.74-17.47c-3.24-1-6.67,0.82-7.67,4.05L55.22,159.98c-1,3.24,0.82,6.67,4.05,7.67
			l56.74,17.47c3.23,1,6.67-0.82,7.66-4.06l38.18-123.97C162.85,53.85,161.03,50.42,157.8,49.42z M122.15,170.15l-59.54-18.33
			l32.3-104.91l59.55,18.34L122.15,170.15z"/>
		<path class="st2" d="M94.69,171.21l-9.97-3.07c-0.52-0.16-0.81-0.71-0.65-1.23l0,0c0.16-0.52,0.71-0.81,1.23-0.65l9.97,3.07
			c0.52,0.16,0.81,0.71,0.65,1.23l0,0C95.76,171.08,95.21,171.37,94.69,171.21z"/>
		<path class="st2" d="M131.77,50.8l-9.97-3.07c-0.52-0.16-0.81-0.71-0.65-1.23h0c0.16-0.52,0.71-0.81,1.23-0.65l9.97,3.07
			c0.52,0.16,0.81,0.71,0.65,1.23l0,0C132.84,50.67,132.29,50.96,131.77,50.8z"/>
	</g>
</g>
</svg>
