<?xml version="1.0" encoding="utf-8"?>
<!-- Generator: Adobe Illustrator 23.0.1, SVG Export Plug-In . SVG Version: 6.00 Build 0)  -->
<svg version="1.1" id="Layer_1" xmlns="http://www.w3.org/2000/svg" xmlns:xlink="http://www.w3.org/1999/xlink" x="0px" y="0px"
	 viewBox="0 0 217.06 217.06" style="enable-background:new 0 0 217.06 217.06;" xml:space="preserve">
<style type="text/css">
	.st0{fill:#FFFFFF;}
	.st1{fill:none;stroke:#FFFFFF;stroke-width:3;stroke-miterlimit:10;}
</style>
<g>
	<g>
		<path class="st0" d="M112.67,132.76l2.56,10.74c1.28,5.34,6.05,9.11,11.55,9.11h7.39c30.58,0,41.6-20.51,41.6-44.07
			s-11.01-44.07-41.79-44.07H83.08c-29.43,0-41.79,20.51-41.79,44.07s12.35,44.07,41.79,44.07h5.51c5.49,0,10.24-3.75,11.54-9.08
			l3.29-13.56l0.86-3.61l0.05-0.2l0.43-1.79c0.24-0.97,0.83-1.64,1.56-2.01l0.02-0.02c0.59-0.29,1.26-0.38,1.91-0.29
			c1.1,0.18,2.12,0.97,2.44,2.31l0.4,1.64h-0.02L112.67,132.76z M63.71,108.53c0-9.31,4.6-14.83,13.27-16.8c0,0,0,0,0.01,0
			c1.35,2.32,4.09,5.5,8.91,5.5c7.61,0,21.78,0,21.78,0s14.17,0,21.78,0c5.04,0,7.8-3.46,9.08-5.8c0,0,0,0,0,0
			c9.66,1.66,14.81,7.26,14.81,17.11c0,11.79-7.59,17.47-21.65,17.47h-12.71c-0.87-0.35-2.47-1.51-3.57-5.3l0,0
			c-1.12-3.21-4.16-5.49-7.73-5.49c-3.59,0-6.62,2.28-7.75,5.49c-0.01,0.02-0.01,0.02-0.01,0.04c-1.1,3.76-2.69,4.9-3.56,5.25h-11
			C71.31,126.01,63.71,120.32,63.71,108.53z"/>
		
			<ellipse transform="matrix(0.7071 -0.7071 0.7071 0.7071 -53.6743 94.3686)" class="st0" cx="87.08" cy="111.97" rx="7.91" ry="7.91"/>
		
			<ellipse transform="matrix(0.9732 -0.2298 0.2298 0.9732 -22.2949 32.4696)" class="st0" cx="128.29" cy="111.97" rx="7.91" ry="7.91"/>
	</g>
	<circle class="st1" cx="108.53" cy="108.53" r="107.03"/>
</g>
</svg>
